M48
INCH
T01C0.018
T02C0.035
T03C0.038
T04C0.055
T05C0.063
T06C0.071
T07C0.075
T08C0.087
T09C0.091
T10C0.118
T11C0.157
%
T01
X+129795Y+031075
Y+034570
X+130918Y+050295
X+130044Y+052417
X+133539Y+031075
Y+034071
X+133289Y+047300
Y+049297
X+137533Y+029203
X+137283Y+034944
Y+037066
X+136409Y+041309
X+137283Y+044180
Y+046052
X+136809Y+056189
Y+057420
Y+058035
Y+058650
Y+059265
X+137283Y+059655
X+139280Y+030701
Y+039437
Y+041060
X+140127Y+056066
X+138531Y+059655
X+139155
X+139779
X+140127Y+057912
Y+059142
Y+058527
X+141401Y+044554
X+143398Y+050420
X+142650Y+051418
X+143548Y+056189
Y+057420
Y+058035
Y+058650
Y+059265
X+145395Y+034196
Y+037940
X+146144Y+041434
X+145770Y+043057
X+146144Y+042682
X+145645Y+045927
X+144646Y+059655
X+145270
X+145894
X+146518
X+147766Y+032074
X+147392Y+035568
X+148890Y+034196
X+149389Y+037066
X+149014Y+037440
X+148266Y+041559
X+147891Y+040061
Y+040561
X+148141Y+041060
X+148515Y+042433
X+149014Y+048673
X+152135Y+031824
X+152259Y+033572
X+151136Y+035568
Y+035069
X+152010Y+037066
X+151386Y+037690
Y+037066
Y+038189
X+151760Y+040311
X+152634Y+040061
X+151386Y+040685
X+151760Y+041060
X+151386Y+041559
X+151136Y+044055
X+151511Y+043556
X+151635Y+042807
X+152135Y+042433
X+152010Y+043181
X+154256Y+032448
X+154131Y+035444
X+154381Y+033447
X+155629Y+038439
X+153507Y+037690
X+154755Y+040061
X+153757Y+051793
X+156752Y+032324
X+157501Y+033821
X+158624Y+033447
X+157127
X+158624Y+040935
X+156877Y+040186
X+158250Y+041309
X+156877Y+044679
X+156627Y+042433
X+158500
X+157251Y+045428
Y+047050
Y+048548
Y+050046
X+158125Y+053540
X+157501Y+055038
X+159997Y+031700
X+159373
X+159623Y+037316
X+160122Y+037565
X+162743Y+031824
X+163117Y+032199
X+164240Y+034445
X+162368Y+034570
X+162868Y+040561
X+164240Y+043805
X+165863Y+033696
X+166237Y+034071
X+167361Y+034695
X+166487Y+037191
X+167485Y+038189
X+167361Y+041559
Y+042557
Y+043681
X+166612Y+044554
X+166861Y+044055
X+167111Y+043057
X+165738Y+047300
X+166487Y+047674
X+165364Y+046925
X+165738Y+050046
X+170106Y+033322
Y+034071
X+168359Y+034320
Y+033322
Y+037316
X+169857Y+037690
X+170231Y+037191
X+169732Y+038189
X+169607Y+041185
X+169981Y+039937
X+168609Y+039812
X+169233Y+040436
X+168733Y+042433
X+168983Y+043181
X+169981Y+044679
X+170231Y+044180
X+169732Y+045802
X+169607Y+047674
X+169857Y+048673
Y+050545
X+168609Y+049796
X+169732Y+051793
X+171853Y+043681
X+172228Y+042932
X+173476Y+048423
X+172602Y+048548
X+171978
X+171354Y+050545
X+172602Y+049422
X+173351Y+049796
X+172602Y+051793
X+174350Y+040561
X+174599Y+043805
X+174474Y+043057
X+176596Y+043805
X+174599Y+048423
Y+050295
X+176471Y+048548
X+175348Y+050545
X+176222Y+050170
X+179466Y+038314
X+178343Y+040436
X+177969Y+041559
Y+040810
X+178094Y+039687
X+177345
X+177719Y+042682
X+177470Y+043181
X+179466Y+049172
X+178967Y+049047
X+178094Y+049921
X+177345Y+050295
X+181214Y+036442
X+181713Y+040685
X+181838Y+043181
X+180964Y+046301
X+180340Y+048673
X+137283Y+032823
X+136809Y+056804
X+140127Y+056681
Y+057297
X+138905Y+051294
X+142275Y+039312
X+143548Y+056804
X+146144Y+042058
X+149264Y+033072
X+149514Y+036317
X+148640Y+041933
X+148890Y+039063
X+150762Y+033072
X+151386Y+036317
Y+038688
X+152384Y+041684
X+153632Y+033197
X+155255Y+032823
X+156627Y+036068
X+157626Y+032698
X+158500Y+039063
X+157251Y+051169
X+161120Y+033197
X+164490Y+032823
X+162992Y+032698
X+164240Y+045303
X+163492Y+054039
X+164240
X+166737Y+032698
X+166986Y+048049
X+167236Y+042058
X+168733Y+041684
X+168359Y+039063
X+169482Y+038688
X+168858
X+169233Y+050919
X+173476Y+047799
X+171978
X+173601Y+045303
X+173101Y+045178
X+175598Y+035818
X+176097Y+048049
X+175598Y+048174
X+175098Y+048298
X+174724Y+044929
X+176596Y+044804
X+174474Y+041809
X+174599Y+039188
X+179466Y+035818
X+177594Y+041933
X+178842Y+038938
Y+048049
X+179591Y+048298
X+179342Y+038813
X+178468Y+039312
X+181338Y+047799
X+135286Y+030701
X+137782
X+141277
X+134912Y+033322
X+141277Y+035194
X+134912Y+034320
Y+036941
X+144272Y+038064
X+134787Y+040935
X+135286Y+039437
X+138281
X+138032Y+040561
X+143898Y+041185
X+134787Y+044305
X+144147Y+045927
X+135286Y+051668
X+141152Y+052417
X+137907Y+059655
X+144022
X+146768Y+031325
X+146893Y+032074
X+156128Y+032324
X+146893Y+037815
X+156003Y+042807
X+153133Y+046426
X+146866Y+056066
X+150013Y+057659
X+156128
X+146866Y+057912
Y+059142
Y+058527
X+159248Y+034944
X+162244Y+035069
X+165239Y+033322
X+159248Y+037690
X+158874Y+037316
X+167860Y+037690
X+168234Y+040561
X+167860Y+041060
X+167985Y+039437
X+158999Y+043805
Y+042807
X+162244Y+050545
X+167735Y+048423
X+168109Y+048922
X+167985Y+049796
X+165239Y+053041
X+158749
X+179841Y+037316
X+179966Y+036816
X+179716Y+037815
X+177095Y+040810
X+176846Y+044305
X+180215Y+046301
X+170855Y+050420
X+177220Y+048548
X+170980Y+048922
X+179966Y+049172
X+186081Y+040436
X+182711Y+042682
X+182961Y+046925
X+155754Y+032698
X+153133Y+033197
X+150262Y+032823
X+146893Y+035943
X+149888
X+152759Y+042058
X+146768Y+038938
X+146866Y+056681
Y+057297
X+165114Y+032823
X+161994Y+035693
X+158999Y+033072
X+167735Y+050919
X+180090Y+035943
X+174225Y+045303
X+171229Y+047924
X+176970Y+042058
X+176846Y+048174
T02
X+154056Y+055911
X+152135
T03
X+127923Y+055787
X+126938
X+130290Y+044671
Y+046671
Y+047671
Y+045671
X+133414Y+052167
Y+054167
Y+055167
Y+053167
X+130793Y+036941
Y+035957
X+141401Y+046551
X+140417
X+148266Y+038314
Y+037314
X+125676Y+052167
Y+054167
Y+055167
Y+053167
X+127923Y+051543
X+126938
X+131168Y+055787
X+132152
X+144272Y+033322
Y+032322
X+137782Y+047050
X+136798
X+155754Y+041684
X+154754
X+173095Y+033196
X+176095
X+175095
X+174095
X+177095
X+173095Y+034196
X+176095
X+175095
X+174095
X+177095
X+131542Y+048298
X+132526
X+131542Y+043930
X+132526
X+133040Y+036941
Y+035957
X+131168Y+051543
X+132152
X+173250Y+030250
X+174250
X+173250Y+029250
X+174250
X+170250Y+030250
X+171250
X+172250
X+170250Y+029250
X+171250
X+172250
X+167250Y+030250
X+168250
X+169250
X+167250Y+029250
X+168250
X+169250
X+164250Y+030250
X+165250
X+166250
X+164250Y+029250
X+165250
X+166250
X+161250Y+030250
X+162250
X+163250
X+161250Y+029250
X+162250
X+163250
X+158250Y+030250
X+159250
X+160250
X+158250Y+029250
X+159250
X+160250
X+155250Y+030250
X+156250
X+157250
X+155250Y+029250
X+156250
X+157250
X+152250Y+030250
X+153250
X+154250
X+152250Y+029250
X+153250
X+154250
X+149250Y+030250
X+150250
X+151250
X+150250Y+029250
X+151250
X+149250
X+146250Y+030250
X+147250
X+148250
X+147250Y+029250
X+148250
X+146250
X+144250Y+030250
X+145250
X+144250Y+029250
X+145250
T04
X+128149Y+045669
Y+044685
Y+048622
Y+047637
X+126181Y+046653
T05
X+128149Y+046653
X+126181Y+044685
Y+048622
T06
X+125148Y+032986
Y+035348
X+126722Y+032986
X+129006
X+126722Y+035348
X+129006
X+125148Y+039101
Y+041464
X+126722Y+039101
X+129006
X+126722Y+041464
X+129006
T07
X+182462Y+056666
Y+054666
Y+058666
Y+052666
T08
X+128297Y+032199
Y+036136
X+126132Y+034167
X+128297Y+038314
Y+042251
X+126132Y+040283
T09
X+183462Y+059741
Y+051592
T10
X+125801Y+061403
Y+029578
T11
X+186533Y+057666
Y+053666
T00
M30
